<svg xmlns="http://www.w3.org/2000/svg" width="118" height="40"><a href="https://facebook.com/najmulsprofile"><rect x="1" y="2" width="116.4" height="38" rx="20" fill="#111111"/><rect x="0" y="0" width="118.4" height="37" rx="20" fill="#1877F2"/><rect x="1" y="0.5" width="116.4" height="20" rx="20" fill="rgba(255,255,255,0.12)"/><circle cx="22.0" cy="20.0" r="12.0" fill="white"/><g transform="translate(13.00,11.00) scale(0.7500)"><path d="M24 12.073c0-6.627-5.373-12-12-12s-12 5.373-12 12c0 5.99 4.388 10.954 10.125 11.854v-8.385H7.078v-3.47h3.047V9.43c0-3.007 1.792-4.669 4.533-4.669 1.312 0 2.686.235 2.686.235v2.953H15.83c-1.491 0-1.956.925-1.956 1.874v2.25h3.328l-.532 3.47h-2.796v8.385C19.612 23.027 24 18.062 24 12.073z" fill="#1877F2"/></g><text x="42.0" y="24.8" font-family="Arial,sans-serif" font-size="13" fill="white" font-weight="700">Facebook</text></a></svg>