<svg xmlns="http://www.w3.org/2000/svg" width="118" height="40"><a href="https://linkedin.com/in/najmulsprofile"><rect x="1" y="2" width="116.4" height="38" rx="20" fill="#111111"/><rect x="0" y="0" width="118.4" height="37" rx="20" fill="#0077B5"/><rect x="1" y="0.5" width="116.4" height="20" rx="20" fill="rgba(255,255,255,0.12)"/><rect x="10.0" y="8.0" width="24" height="24" rx="5" fill="white"/><g transform="translate(13.00,11.00) scale(0.7500)"><path d="M20.447 20.452h-3.554v-5.569c0-1.328-.027-3.037-1.852-3.037-1.853 0-2.136 1.445-2.136 2.939v5.667H9.351V9h3.414v1.561h.046c.477-.9 1.637-1.85 3.37-1.85 3.601 0 4.267 2.37 4.267 5.455v6.286zM5.337 7.433a2.062 2.062 0 0 1-2.063-2.065 2.064 2.064 0 1 1 2.063 2.065zm1.782 13.019H3.555V9h3.564v11.452zM22.225 0H1.771C.792 0 0 .774 0 1.729v20.542C0 23.227.792 24 1.771 24h20.451C23.2 24 24 23.227 24 22.271V1.729C24 .774 23.2 0 22.222 0h.003z" fill="#0077B5"/></g><text x="42.0" y="24.8" font-family="Arial,sans-serif" font-size="13" fill="white" font-weight="700">LinkedIn</text></a></svg>